<svg height="400pt" preserveAspectRatio="xMidYMid meet" viewBox="0 0 400 400" width="400pt" xmlns="http://www.w3.org/2000/svg"><g transform="matrix(.1 0 0 -.1 0 400)"><path d="m1938 3913c-19-5-28-28-34-82-7-75-16-121-25-127-13-7-11-104 1-104 18 0 8-142-10-150-8-4-25-12-37-18-13-7-61-12-107-12-47 0-88-4-91-10-3-5-15-10-25-10-17 0-217-60-267-81-13-5-33-13-45-18-51-20-138-66-138-73 0-5-8-8-18-8s-27-8-38-17c-22-20-45-35-89-59-16-10-52-42-80-72-27-31-65-70-82-88-18-18-33-38-33-44 0-5-4-10-10-10-5 0-10-9-10-20s-4-20-8-20c-5 0-18-18-31-40-12-22-27-45-34-53-17-18-40-58-89-157-24-47-46-86-50-88-5-2-8-12-8-22s-4-22-10-25-10-15-10-26c0-10-4-27-10-37-19-34-40-145-40-213 0-63 10-122 31-189l7-25 1 23c1 25 26 122 40 157 5 11 15 40 22 65s16 49 21 55c4 5 8 17 8 27 0 11 11 30 25 44s25 31 25 39 5 15 11 15c16 0-1-201-21-245-9-21-11-33-31-272-13-145-4-348 20-456 6-26 15-80 21-120 14-97 26-163 40-217 7-25 13-137 15-250 3-190 8-244 34-390 6-30 13-71 16-90 4-19 10-44 15-55 4-11 16-48 27-82 10-35 21-63 26-63 4 0 7-13 7-30 0-16 5-30 10-30 6 0 10-11 10-25s4-25 9-25 17-20 26-45l17-44 394-1c375 0 394 1 394 18 0 10-9 28-20 40-22 24-26 72-8 90 17 17 28 15 28-5 0-10 12-46 27-80l28-62 53-1c28 0 52 5 52 10 0 6-4 10-8 10-5 0-17 16-28 35-10 19-22 35-26 35-5 0-8 9-8 20s-4 20-10 20c-5 0-10 11-10 25s-4 25-10 25c-5 0-10 9-10 21 0 19 4 20 88 15 202-13 242-18 242-29s-65-77-75-77c-3 0-24-18-47-40-24-22-51-43-60-46-34-10-18-24 27-24 25 0 45 5 45 10 0 6 6 10 13 10s54 39 104 87c106 102 122 113 163 113 27 0 30-3 30-29 0-17-4-33-10-36s-10-24-10-45-4-40-10-42c-5-1-12-18-16-35l-6-33h871 871v700c0 387-4 700-9 700-11 0-41 79-41 107 0 12-4 25-10 28-5 3-10 19-10 36 0 16-4 29-10 29-5 0-10 13-10 29 0 17-4 33-10 36-5 3-10 26-10 50s-4 46-9 50c-5 3-13 20-17 37-6 31-10 40-34 88-5 11-10 29-10 39 0 11-4 23-10 26-5 3-10 15-10 26 0 10-4 27-9 37-48 88-51 122-16 158 23 23 32 62 26 114-6 62-1 103 16 118 10 10 23 26 29 37s23 42 37 68c22 38 27 61 27 112 0 37-4 65-10 65-5 0-10 8-10 18s-5 23-12 30c-13 13 3 76 34 127 10 17 18 37 18 46 0 23 30 81 52 100 17 15 18 41 18 376v360l-92 7c-134 9-396 6-453-5-27-6-97-14-155-19-139-12-190-20-190-31 0-5-8-9-19-9-21 0-213-87-221-100-11-18-134-80-159-80-15 0-45 9-67 19-22 11-53 23-67 26-15 4-33 15-40 24-6 10-41 39-77 64-36 26-71 52-78 58-25 20-134 79-148 79-8 0-14 5-14 10 0 6-11 10-24 10-14 0-28 5-31 10-3 6-15 10-26 10s-32 11-47 25-30 25-35 25c-4 0-19 11-33 25-23 24-47 29-86 18zm42-213c0-5-4-10-10-10-5 0-10 5-10 10 0 6 5 10 10 10 6 0 10-4 10-10zm1444-55c-4-8-10-13-14-10-5 3-11 1-15-5-3-5-19-10-36-10-16 0-29-4-29-10 0-5-14-10-31-10s-28-4-24-10-10-10-34-10c-23 0-41-4-41-9 0-8-80-43-110-48-77-12-132-32-124-44 3-5-2-9-10-9-9 0-16 5-16 11 0 7-12 10-32 7-18-3-39-3-45-1-20 7-15 23 7 23 11 0 20 5 20 10 0 6 7 10 15 10s23 4 33 9c55 28 161 61 196 61 14 0 27 4 30 9s23 11 43 14c21 3 65 12 98 20 83 21 126 21 119 2zm-741-232c-7-2-19-2-25 0-7 3-2 5 12 5s19-2 13-5zm-1353-333c0-6-7-10-15-10s-15-5-15-11-7-8-16-5c-12 4-14 1-9-14 4-14 2-20-8-20-18 0-80-60-85-80-2-8-7-21-12-30-7-11-9-4-10 23 0 55-41 88-67 55-12-17-32-85-35-123-2-22-9-31-25-33-25-4-51 32-31 44 7 4 8 3 4-4s-3-12 3-12c5 0 9 9 8 19 0 11-5 17-9 15-4-3-8 0-8 5 0 6 5 11 10 11 6 0 10 7 10 15 0 27 80 95 111 95 15 0 30 6 33 13 3 9 8 8 18-3 22-25 39-23 34 4-3 18 1 27 15 31 10 4 19 9 19 13s18 8 40 9c22 2 40-2 40-7zm653-470c14-16 29-30 34-30 15-1 93-78 93-93 0-19-126-45-142-29-11 11-24 65-35 140-7 52 13 57 50 12zm-660-197c-7-2-19-2-25 0-7 3-2 5 12 5s19-2 13-5zm889-5c50-29 188-160 188-178 0-9-69-15-277-26-68-3-123-10-123-15 0-14-37-11-43 4-2 6-1 55 2 107l6 95 85 3c47 2 89 7 94 12 14 14 42 12 68-2zm-784-88c17-16 33-30 36-30 9 0 69-54 165-150 111-110 142-147 150-179 8-29 41-42 41-16 0 9 11 26 25 39s25 28 25 35c0 6 2 11 4 11s11 3 20 6c12 5 16-1 16-23 0-16 5-34 11-40 22-22 2-43-39-43-44 0-66-18-56-45 6-15 17-16 83-11 42 3 103 10 136 16s105 14 160 17c74 4 105 10 122 23 19 15 21 19 7 24-9 3-30 6-49 6-32 0-62 21-52 37 3 5 8 40 11 77 5 75 13 86 63 86 17 0 35 5 38 10 3 6 17 10 30 10s25 6 28 13c5 14 67-49 67-70 0-7 3-13 8-13 8 0 28-43 38-83 5-22 9-25 20-16 15 12 44 66 44 81 0 10 30 43 33 37 7-10 31-89 39-124 19-85 29-131 35-157 3-16 9-28 14-28s9-16 9-35 4-43 9-53c14-28 41-116 41-134 0-10 5-18 10-18 6 0 10-9 10-20s8-34 18-52c21-38 42-151 43-235 0-56 28-185 42-199 4-4 7-22 7-41 0-18 5-33 10-33 6 0 10-8 10-18s4-22 8-28c4-5 14-27 21-49 11-35 25-73 51-140 5-11 10-29 13-40s8-27 11-35c6-15-52-90-69-90-3 0-13-7-22-15-8-9-43-34-77-57-33-23-62-45-64-50-2-4-10-8-17-8s-33-11-56-25c-24-14-54-25-66-25-13 0-23-4-23-9s-15-11-32-14c-18-2-62-12-98-21s-96-24-135-32c-38-9-84-20-101-25s-44-9-62-9c-17 0-34-4-37-10-8-13-327-14-340-1-6 5-32 11-60 14-90 9-231 48-287 78-10 5-25 9-33 9s-15 5-15 10c0 6-7 10-14 10-8 0-36 11-62 25s-53 25-60 25c-8 0-14 5-14 10 0 6-7 10-15 10s-15 5-15 10c0 6-6 10-13 10s-22 8-33 17c-10 10-48 43-84 73-88 73-151 137-186 191-42 62-104 187-104 210 0 10-4 19-10 19-5 0-10 7-10 15 0 9-9 44-19 78-11 34-28 109-37 166-34 210 0 553 72 718 15 35 38 36 49 2 4-10 11-19 16-19s9-4 9-9c0-12 93-165 103-169 4-2 7-14 7-28 0-31 34-40 108-26 31 6 87 16 124 22 109 19 143 34 146 64 3 20-1 26-17 26-37 0-51 11-51 41 0 16-4 29-10 29-5 0-10 20-10 45v45h65c50 0 65 3 65 14 0 8-4 18-10 21-5 3-10 17-10 31 0 13-4 24-9 24s-11 8-14 18c-3 9-14 40-24 67-38 97-37 121 2 143 30 17 41 15 73-18zm-285-161c31-32 57-63 57-68 0-12-24-18-95-24-27-2-57-6-65-8-12-3-15 13-18 95-4 128 2 142 36 97 15-18 53-60 85-92zm-422-302c-6-6-11-36-11-66 0-40-3-52-11-44-7 7-9 29-5 60 4 26 9 71 12 98 8 77 18 87 22 21 2-33-2-64-7-69zm319 27c0-41-4-63-10-59-5 3-10 33-10 66s4 59 10 59 10-29 10-66zm2000-790c0-19 5-34 10-34 6 0 10-8 10-19 0-10 6-23 13-29s19-27 27-47c7-19 17-35 22-35 4 0 8-6 8-14 0-14 41-121 61-158 5-10 9-25 9-33s5-15 10-15c6 0 10-9 10-19 0-11 4-22 9-25s11-18 14-33c3-16 9-41 14-58 6-16 7-39 3-49-6-19-8-18-31 8-13 16-33 38-44 50-21 21-75 128-75 146 0 6-4 18-9 28-53 104-77 195-72 273 2 32-2 51-13 62-23 23-21 46 4 40 15-4 20-14 20-39zm-2098-454c5 0 30-21 54-47 31-32 42-52 38-65-3-11 8-41 27-76 17-31 37-67 43-79 6-13 14-23 19-23 4 0 7-9 7-20 0-10 11-30 25-44s25-30 25-36c0-5 4-10 9-10s14-13 21-30 15-30 19-30 12-14 18-30c9-25 9-30-3-30-8 0-14 4-14 8 0 5-11 15-25 22s-25 19-25 27c0 7-13 27-29 44s-38 50-48 75c-10 24-21 44-25 44-5 0-8 9-8 20s-4 20-9 20-15 16-22 35-16 35-20 35c-13 0-86 145-93 185-4 17-3 24 0 18 3-7 10-13 16-13z"/><path d="m1588 771c-53-8-74-22-65-45 5-13 23-16 85-16 98 0 142 8 142 26 0 28-86 46-162 35z"/></g></svg>