<svg height="400pt" preserveAspectRatio="xMidYMid meet" viewBox="0 0 400 400" width="400pt" xmlns="http://www.w3.org/2000/svg"><g transform="matrix(.1 0 0 -.1 0 400)"><path d="m1938 3917c-35-14-40-26-44-117-2-41-9-79-14-84-13-13-13-136 0-136 6 0 10-24 10-53 0-76-14-86-142-99-57-5-111-14-120-19-10-5-26-9-35-9-24 1-187-53-191-62-2-5-17-8-33-8s-29-4-29-10c0-5-11-10-25-10s-25-4-25-10c0-5-11-10-24-10s-29-7-36-15-18-15-24-15-22-9-36-20-33-20-42-20c-10 0-18-4-18-9s-13-14-29-21c-16-6-32-18-35-26s-13-14-22-14-53-38-97-84c-94-96-112-118-134-163-8-18-19-33-24-33s-9-6-9-13c0-8-11-27-25-43s-25-35-25-41c0-7-4-13-10-13-5 0-10-7-10-15s-4-15-10-15c-5 0-10-9-10-20s-3-20-7-20c-5 0-17-20-28-45s-23-45-27-45c-5 0-8-9-8-19 0-11-4-23-10-26-5-3-10-15-10-26 0-10-4-19-10-19-5 0-10-10-10-22-1-13-7-34-15-48s-14-39-15-57c0-17-4-35-10-38-17-11-11-193 9-275 11-44 19-63 20-47 1 15 8 44 16 64 8 19 15 48 15 64s5 29 10 29c6 0 10 16 10 35s5 35 10 35c6 0 10 14 10 30 0 17 4 30 9 30s11 12 14 28c6 26 47 82 61 82 3 0 6-25 6-55s-4-55-9-55-12-21-15-47c-13-112-24-192-36-258-15-87-10-486 7-506 10-13 14-36 29-191 3-32 9-58 14-58 4 0 10-21 13-47 2-27 9-66 15-87 7-25 9-98 5-190-4-118-2-168 11-230 9-43 16-98 16-121 0-24 5-47 10-50 6-3 10-28 10-56 0-27 5-49 10-49 6 0 10-18 10-39 0-22 5-43 10-46 6-3 10-17 10-31 0-13 4-32 9-42 23-46 41-95 41-112 0-11 5-20 10-20 6 0 10-9 10-20s4-20 9-20 15-20 22-45l13-45h403c399 0 403 0 403 20 0 12-11 31-25 44-31 29-34 66-5 66 11 0 20-7 20-15 0-9 11-38 25-65l25-50h116 115l41 38c22 20 69 64 104 98 47 46 72 63 101 67 37 6 73-10 46-20-7-3-13-19-13-37s-6-46-14-62-18-41-21-57l-7-27h876 876v700c0 385-4 700-8 700-7 0-35 82-74 220-6 19-14 43-19 52-5 10-9 38-9 63s-3 45-8 45c-4 0-16 27-26 61-11 33-23 62-28 65-4 3-8 16-8 30 0 13-4 24-10 24-5 0-10 11-10 25s-4 33-9 43c-20 40-41 94-41 106 0 7 11 22 25 32 16 12 25 29 25 47 0 16 5 38 11 50 9 16 9 22 0 25-6 2-11 21-11 43 0 38 10 64 39 100 8 10 27 41 43 69 23 42 28 63 28 118 0 38-5 73-11 79-25 25-5 173 23 173 5 0 8 13 8 29 0 17 4 32 9 35 4 3 11 19 14 34 4 18 14 31 26 35 21 5 21 10 21 375v369l-67 6c-131 13-454 8-536-8-43-8-110-15-148-15-39 0-69-4-69-10 0-5-16-10-35-10s-35-4-35-10c0-5-11-10-25-10s-33-4-43-9c-76-37-128-61-135-61-4 0-17-8-28-19-11-10-37-27-57-37-20-11-39-21-42-24-26-26-93-40-104-21-3 4-30 16-60 25-30 10-67 30-83 44-15 15-46 41-68 57-22 17-49 38-59 48-11 9-26 17-33 17s-13 5-13 10c0 6-6 10-14 10-7 0-19 6-25 14-7 8-37 24-69 36-31 12-66 26-77 30-11 5-30 11-41 15-19 5-34 15-81 55-7 5-16 10-20 10-5 0-15 9-23 20-16 22-31 23-72 7zm81-1345c25-24 56-51 69-59 40-27 27-41-40-45-35-2-68-2-74 0s-14 22-18 45c-3 23-9 59-12 80-5 33-4 36 11 30 10-3 39-26 64-51zm231-201c60-44 143-132 134-140-5-5-90-14-189-20s-191-12-205-13c-25-3-25-2-28 77-4 120-1 124 122 127 118 3 120 3 166-31zm-826-56c14-14 28-25 31-25 4 0 12-6 19-12 7-7 30-26 51-43 44-35 185-172 185-180 0-3 5-11 10-18 49-58 60-75 60-94 0-12 9-27 20-33s20-17 20-25c0-12 18-15 95-15 52 0 104 4 117 10 13 5 79 13 148 18 94 6 132 13 153 27 36 23 23 37-41 45l-47 5 2 65c4 103 6 106 62 114 28 4 53 11 56 16 3 6 21 10 38 10 29 0 36-7 70-66 20-36 37-77 37-90 0-35 31-31 53 7 9 17 17 35 17 41 0 10 25 38 34 38 3 0 6-7 6-15s4-23 9-33c5-9 16-53 26-97 9-44 21-90 26-103s9-34 9-47 5-27 10-30c6-3 10-22 10-41s5-34 10-34c6 0 10-8 10-18 0-9 9-42 21-72 11-30 23-64 26-75s9-24 13-30c15-22 30-94 35-170 8-120 39-282 58-301 4-4 7-18 7-30 0-13 5-26 10-29 6-3 10-16 10-29 0-12 4-26 8-32 5-5 15-29 22-54 8-25 24-67 37-94 35-76 31-111-19-158-23-21-47-38-55-38-7 0-13-4-13-8s-15-16-32-27c-18-10-41-27-51-36-28-25-159-89-185-89-12 0-22-4-22-9s-17-11-37-14c-21-3-56-10-78-16-22-5-60-15-85-20-25-6-74-18-110-27s-91-18-122-21c-32-3-58-9-58-15 0-11-117-6-295 11-116 11-231 37-302 67-223 95-302 138-373 206-19 18-53 47-75 63-42 32-125 115-125 127 0 4-6 13-13 20-20 21-107 199-107 219 0 10-4 21-10 24-5 3-10 17-10 30s-4 26-9 29-11 20-14 38c-4 18-13 69-21 113-28 149-15 476 25 620 6 22 13 53 16 70 6 32 43 98 43 78 0-7 6-13 13-13 6 0 18-15 26-32 8-18 17-35 21-38 22-18 100-153 100-174 0-23 43-27 116-11 38 8 82 15 99 15 16 0 60 10 96 21 54 17 69 26 74 46 8 33-1 43-41 43-33 0-34 1-34 39 0 22-4 43-10 46-14 9-12 34 4 51 16 16 96 19 96 4 0-5 9-10 20-10 13 0 20 7 20 19 0 11-3 21-7 23-15 6-72 139-95 217-11 41-11 45 11 62 31 25 45 24 75-6zm-268-172 44-42-22-15c-13-8-52-16-88-18l-65-3-3 40c-2 22-1 69 3 104l7 64 40-44c22-24 60-63 84-86zm756-168 3-40-47-3c-27-2-48 1-48 5 0 7 18 31 61 81 16 19 27 4 31-43zm-875-137c-3-7-5-2-5 12s2 19 5 13c2-7 2-19 0-25zm884-1629c11-5 55-12 97-14s81-4 86-4c11-1-56-66-119-116-27-22-51-43-53-47-7-16-42-7-62 14-11 12-33 49-49 83-48 100-49 95 20 95 33 0 69-5 80-11z"/><path d="m1540 767c-14-7-25-21-25-32 0-19 8-20 123-23 116-2 122-2 122 17 0 31-49 51-127 51-37 0-79-6-93-13z"/></g></svg>